<svg width="145" height="144" viewBox="0 0 145 144" fill="none" xmlns="http://www.w3.org/2000/svg">
<g opacity="0.5" clip-path="url(#clip0_1945_5181)">
<g filter="url(#filter0_b_1945_5181)">
<path fill-rule="evenodd" clip-rule="evenodd" d="M106.62 47.5399C104.266 47.6851 102.401 49.6404 102.401 52.0312L102.401 88.0312C102.401 90.5165 100.386 92.5312 97.9011 92.5312H57.6824V92.5226C60.0366 92.3774 61.9011 90.4221 61.9011 88.0312H61.9011V52.0312H61.9011C61.9011 49.546 63.9158 47.5312 66.4011 47.5312H106.62V47.5399Z" fill="url(#paint0_linear_1945_5181)"/>
</g>
<g opacity="0.5">
<g filter="url(#filter1_i_1945_5181)">
<path fill-rule="evenodd" clip-rule="evenodd" d="M96.8764 114.545C96.5147 114.907 96.5147 115.493 96.8764 115.855L98.7487 117.727C99.1104 118.089 99.6967 118.089 100.058 117.727L103.522 114.264C103.883 113.902 104.47 113.902 104.831 114.264L108.295 117.727C108.656 118.089 109.243 118.089 109.604 117.727L111.477 115.855C111.838 115.493 111.838 114.907 111.477 114.545L108.013 111.082C107.652 110.72 107.652 110.134 108.013 109.772L111.477 106.309C111.838 105.947 111.838 105.361 111.477 104.999L109.604 103.127C109.243 102.765 108.656 102.765 108.295 103.127L104.831 106.59C104.47 106.952 103.883 106.952 103.522 106.59L100.058 103.127C99.6967 102.765 99.1103 102.765 98.7487 103.127L96.8763 104.999C96.5147 105.361 96.5147 105.947 96.8763 106.309L100.34 109.772C100.701 110.134 100.701 110.72 100.34 111.082L96.8764 114.545Z" fill="url(#paint1_linear_1945_5181)"/>
</g>
<path d="M100.34 111.082L99.6849 110.427L100.34 111.082ZM100.058 103.127L99.4035 103.782L100.058 103.127ZM103.522 106.59L102.867 107.245L103.522 106.59ZM109.604 103.127L108.949 103.782L109.604 103.127ZM111.477 106.309L110.822 105.654L111.477 106.309ZM111.477 104.999L110.822 105.654L111.477 104.999ZM108.013 111.082L108.668 110.427L108.013 111.082ZM111.477 115.855L112.131 116.509L111.477 115.855ZM96.8764 115.855L96.2215 116.509L96.8764 115.855ZM98.7487 117.727L98.0939 118.382L98.7487 117.727ZM100.058 117.727L99.4035 117.072L100.058 117.727ZM99.4035 117.072L97.5312 115.2L96.2215 116.509L98.0939 118.382L99.4035 117.072ZM102.867 113.609L99.4035 117.072L100.713 118.382L104.176 114.918L102.867 113.609ZM108.949 117.072L105.486 113.609L104.176 114.918L107.64 118.382L108.949 117.072ZM110.822 115.2L108.949 117.072L110.259 118.382L112.131 116.509L110.822 115.2ZM107.358 111.736L110.822 115.2L112.131 113.89L108.668 110.427L107.358 111.736ZM110.822 105.654L107.358 109.117L108.668 110.427L112.131 106.963L110.822 105.654ZM108.949 103.782L110.822 105.654L112.131 104.344L110.259 102.472L108.949 103.782ZM105.486 107.245L108.949 103.782L107.64 102.472L104.176 105.935L105.486 107.245ZM99.4035 103.782L102.867 107.245L104.176 105.935L100.713 102.472L99.4035 103.782ZM97.5311 105.654L99.4035 103.782L98.0939 102.472L96.2215 104.344L97.5311 105.654ZM100.995 109.117L97.5311 105.654L96.2215 106.963L99.6849 110.427L100.995 109.117ZM97.5312 115.2L100.995 111.736L99.6849 110.427L96.2215 113.89L97.5312 115.2ZM99.6849 110.427L99.6849 110.427L100.995 111.736C101.718 111.013 101.718 109.841 100.995 109.117L99.6849 110.427ZM96.2215 104.344C95.4982 105.068 95.4982 106.24 96.2215 106.963L97.5311 105.654L97.5311 105.654L96.2215 104.344ZM100.713 102.472C99.9898 101.749 98.8172 101.749 98.0939 102.472L99.4035 103.782L100.713 102.472ZM104.176 105.935L102.867 107.245C103.59 107.968 104.763 107.968 105.486 107.245L104.176 105.935ZM110.259 102.472C109.536 101.749 108.363 101.749 107.64 102.472L108.949 103.782V103.782L110.259 102.472ZM112.131 106.963C112.855 106.24 112.855 105.068 112.131 104.344L110.822 105.654L112.131 106.963ZM108.668 110.427V110.427L107.358 109.117C106.635 109.841 106.635 111.013 107.358 111.736L108.668 110.427ZM112.131 116.509C112.855 115.786 112.855 114.613 112.131 113.89L110.822 115.2H110.822L112.131 116.509ZM107.64 118.382C108.363 119.105 109.536 119.105 110.259 118.382L108.949 117.072L107.64 118.382ZM104.176 114.918L104.176 114.918L105.486 113.609C104.763 112.886 103.59 112.886 102.867 113.609L104.176 114.918ZM97.5312 115.2L96.2215 113.89C95.4983 114.613 95.4983 115.786 96.2215 116.509L97.5312 115.2ZM98.0939 118.382C98.8172 119.105 99.9899 119.105 100.713 118.382L99.4035 117.072L99.4035 117.072L98.0939 118.382Z" fill="#DA2F38"/>
</g>
<g opacity="0.5">
<g filter="url(#filter2_i_1945_5181)">
<path fill-rule="evenodd" clip-rule="evenodd" d="M86.1888 37.4825C85.8272 37.8441 85.8272 38.4305 86.1888 38.7921L88.0612 40.6645C88.4228 41.0261 89.0092 41.0261 89.3708 40.6645L92.8342 37.2011C93.1958 36.8395 93.7821 36.8395 94.1438 37.2011L97.6071 40.6645C97.9688 41.0261 98.5551 41.0261 98.9168 40.6645L100.789 38.7921C101.151 38.4305 101.151 37.8441 100.789 37.4825L97.3258 34.0192C96.9641 33.6575 96.9641 33.0712 97.3258 32.7095L100.789 29.2462C101.151 28.8845 101.151 28.2982 100.789 27.9366L98.9168 26.0642C98.5551 25.7026 97.9688 25.7026 97.6071 26.0642L94.1438 29.5275C93.7821 29.8892 93.1958 29.8892 92.8342 29.5275L89.3708 26.0642C89.0092 25.7026 88.4228 25.7026 88.0612 26.0642L86.1888 27.9366C85.8272 28.2982 85.8272 28.8845 86.1888 29.2462L89.6522 32.7095C90.0138 33.0712 90.0138 33.6575 89.6522 34.0192L86.1888 37.4825Z" fill="url(#paint2_linear_1945_5181)"/>
</g>
<path d="M89.3708 26.0642L88.716 26.719L89.3708 26.0642ZM92.8342 29.5275L92.1793 30.1824L92.8342 29.5275ZM98.9168 26.0642L98.2619 26.719L98.9168 26.0642ZM100.789 29.2462L101.444 29.901L100.789 29.2462ZM97.3258 34.0192L96.671 34.674L97.3258 34.0192ZM97.3258 32.7095L97.9806 33.3643L97.3258 32.7095ZM100.789 38.7921L100.134 38.1373L100.789 38.7921ZM98.9168 40.6645L99.5716 41.3193L98.9168 40.6645ZM94.1438 37.2011L93.489 37.8559L94.1438 37.2011ZM86.1888 38.7921L85.534 39.4469L86.1888 38.7921ZM86.1888 37.4825L85.534 36.8277L86.1888 37.4825ZM88.0612 40.6645L87.4064 41.3193L88.0612 40.6645ZM89.3708 40.6645L88.716 40.0097L89.3708 40.6645ZM88.716 40.0097L86.8436 38.1373L85.534 39.4469L87.4064 41.3193L88.716 40.0097ZM92.1793 36.5463L88.716 40.0097L90.0256 41.3193L93.489 37.8559L92.1793 36.5463ZM98.2619 40.0097L94.7986 36.5463L93.489 37.8559L96.9523 41.3193L98.2619 40.0097ZM100.134 38.1373L98.2619 40.0097L99.5716 41.3193L101.444 39.4469L100.134 38.1373ZM96.671 34.674L100.134 38.1373L101.444 36.8277L97.9806 33.3643L96.671 34.674ZM100.134 28.5914L96.671 32.0547L97.9806 33.3643L101.444 29.901L100.134 28.5914ZM98.2619 26.719L100.134 28.5914L101.444 27.2817L99.5716 25.4094L98.2619 26.719ZM94.7986 30.1824L98.2619 26.719L96.9523 25.4094L93.489 28.8727L94.7986 30.1824ZM88.716 26.719L92.1793 30.1824L93.489 28.8727L90.0256 25.4094L88.716 26.719ZM86.8436 28.5914L88.716 26.719L87.4064 25.4094L85.534 27.2817L86.8436 28.5914ZM90.307 32.0547L86.8436 28.5914L85.534 29.901L88.9974 33.3643L90.307 32.0547ZM86.8436 38.1373L90.307 34.674L88.9974 33.3643L85.534 36.8277L86.8436 38.1373ZM88.9974 33.3643H88.9974L90.307 34.674C91.0303 33.9507 91.0303 32.778 90.307 32.0547L88.9974 33.3643ZM85.534 27.2817C84.8107 28.005 84.8107 29.1777 85.534 29.901L86.8436 28.5914L86.8436 28.5914L85.534 27.2817ZM90.0256 25.4094C89.3023 24.6861 88.1297 24.6861 87.4064 25.4094L88.716 26.719L90.0256 25.4094ZM93.489 28.8727L93.489 28.8727L92.1793 30.1824C92.9026 30.9056 94.0753 30.9056 94.7986 30.1824L93.489 28.8727ZM99.5716 25.4094C98.8483 24.6861 97.6756 24.6861 96.9523 25.4094L98.2619 26.719L99.5716 25.4094ZM101.444 29.901C102.167 29.1777 102.167 28.005 101.444 27.2817L100.134 28.5914L101.444 29.901ZM97.9806 33.3643V33.3643L96.671 32.0547C95.9477 32.778 95.9477 33.9507 96.671 34.674L97.9806 33.3643ZM101.444 39.4469C102.167 38.7237 102.167 37.551 101.444 36.8277L100.134 38.1373L101.444 39.4469ZM96.9523 41.3193C97.6756 42.0426 98.8483 42.0426 99.5716 41.3193L98.2619 40.0097L96.9523 41.3193ZM93.489 37.8559L94.7986 36.5463C94.0753 35.823 92.9026 35.823 92.1793 36.5463L93.489 37.8559ZM86.8436 38.1373L85.534 36.8277C84.8107 37.551 84.8107 38.7237 85.534 39.4469L86.8436 38.1373ZM87.4064 41.3193C88.1297 42.0426 89.3023 42.0426 90.0256 41.3193L88.716 40.0097H88.716L87.4064 41.3193Z" fill="#DA2F38"/>
</g>
<g filter="url(#filter3_b_1945_5181)">
<path fill-rule="evenodd" clip-rule="evenodd" d="M111.401 58.7812H70.9011V52.0312C70.9011 49.6404 69.0366 47.6851 66.6824 47.5399V47.5312H106.901C109.386 47.5312 111.401 49.546 111.401 52.0312V58.7812Z" fill="url(#paint3_linear_1945_5181)"/>
</g>
<g filter="url(#filter4_b_1945_5181)">
<path fill-rule="evenodd" clip-rule="evenodd" d="M67.5261 54.2812C66.9048 54.2812 66.4011 54.7849 66.4011 55.4062C66.4011 56.0276 66.9048 56.5312 67.5261 56.5312H96.7761C97.3974 56.5312 97.9011 56.0276 97.9011 55.4062C97.9011 54.7849 97.3974 54.2812 96.7761 54.2812H67.5261ZM67.5262 58.7812C66.9048 58.7812 66.4012 59.2849 66.4012 59.9062C66.4012 60.5276 66.9048 61.0312 67.5262 61.0312H96.7762C97.3975 61.0312 97.9012 60.5276 97.9012 59.9062C97.9012 59.2849 97.3975 58.7812 96.7762 58.7812H67.5262ZM66.4012 64.4062C66.4012 63.7849 66.9048 63.2812 67.5262 63.2812H96.7762C97.3975 63.2812 97.9012 63.7849 97.9012 64.4062C97.9012 65.0276 97.3975 65.5312 96.7762 65.5312H67.5262C66.9048 65.5312 66.4012 65.0276 66.4012 64.4062ZM67.5262 67.7812C66.9048 67.7812 66.4012 68.2849 66.4012 68.9062C66.4012 69.5276 66.9048 70.0312 67.5262 70.0312H96.7762C97.3975 70.0312 97.9012 69.5276 97.9012 68.9062C97.9012 68.2849 97.3975 67.7812 96.7762 67.7812H67.5262ZM66.4012 73.4062C66.4012 72.7849 66.9048 72.2812 67.5262 72.2812H96.7762C97.3975 72.2812 97.9012 72.7849 97.9012 73.4062C97.9012 74.0276 97.3975 74.5312 96.7762 74.5312H67.5262C66.9048 74.5312 66.4012 74.0276 66.4012 73.4062ZM67.5262 76.7812C66.9048 76.7812 66.4012 77.2849 66.4012 77.9062C66.4012 78.5276 66.9048 79.0312 67.5262 79.0312H96.7762C97.3975 79.0312 97.9012 78.5276 97.9012 77.9062C97.9012 77.2849 97.3975 76.7812 96.7762 76.7812H67.5262ZM66.4012 82.4062C66.4012 81.7849 66.9048 81.2812 67.5262 81.2812H96.7762C97.3975 81.2812 97.9012 81.7849 97.9012 82.4062C97.9012 83.0276 97.3975 83.5312 96.7762 83.5312H67.5262C66.9048 83.5312 66.4012 83.0276 66.4012 82.4062ZM67.5262 85.7812C66.9048 85.7812 66.4012 86.2849 66.4012 86.9062C66.4012 87.5276 66.9048 88.0312 67.5262 88.0312H96.7762C97.3975 88.0312 97.9012 87.5276 97.9012 86.9062C97.9012 86.2849 97.3975 85.7812 96.7762 85.7812H67.5262Z" fill="#E6FFEE"/>
</g>
<g filter="url(#filter5_b_1945_5181)">
<path fill-rule="evenodd" clip-rule="evenodd" d="M97.6199 92.5268C97.6199 92.5244 97.618 92.5225 97.6157 92.5223C95.2634 92.3751 93.4011 90.4207 93.4011 88.0312L93.4011 70.0312C93.4011 67.546 91.3864 65.5312 88.9011 65.5312H48.6868C48.6844 65.5312 48.6824 65.5332 48.6824 65.5357C48.6824 65.5381 48.6842 65.54 48.6866 65.5402C51.0389 65.6874 52.9011 67.6418 52.9011 70.0312L52.9011 88.0312C52.9011 90.5165 54.9158 92.5312 57.4011 92.5312H97.6154C97.6179 92.5312 97.6199 92.5293 97.6199 92.5268Z" fill="url(#paint4_linear_1945_5181)"/>
</g>
<g filter="url(#filter6_b_1945_5181)">
<path fill-rule="evenodd" clip-rule="evenodd" d="M88.6198 65.5399C86.2656 65.6851 84.4011 67.6404 84.4011 70.0312L84.4011 106.031C84.4011 108.517 82.3864 110.531 79.9011 110.531H39.6824V110.523C42.0366 110.377 43.9011 108.422 43.9011 106.031H43.9011V70.0312H43.9011C43.9011 67.546 45.9158 65.5312 48.4011 65.5312H88.6198V65.5399Z" fill="url(#paint5_linear_1945_5181)"/>
</g>
<g filter="url(#filter7_b_1945_5181)">
<path fill-rule="evenodd" clip-rule="evenodd" d="M48.4011 73.4062C48.4011 72.7849 48.9048 72.2812 49.5261 72.2812H59.9324C60.5537 72.2812 61.0574 72.7849 61.0574 73.4062C61.0574 74.0276 60.5537 74.5312 59.9324 74.5312H49.5261C48.9048 74.5312 48.4011 74.0276 48.4011 73.4062ZM63.3074 73.4062C63.3074 72.7849 63.8111 72.2812 64.4324 72.2812H78.7761C79.3974 72.2812 79.9011 72.7849 79.9011 73.4062C79.9011 74.0276 79.3974 74.5312 78.7761 74.5312H64.4324C63.8111 74.5312 63.3074 74.0276 63.3074 73.4062ZM49.8074 76.7812C49.1861 76.7812 48.6824 77.2849 48.6824 77.9062C48.6824 78.5276 49.1861 79.0312 49.8074 79.0312H70.9011C71.5224 79.0312 72.0261 78.5276 72.0261 77.9062C72.0261 77.2849 71.5224 76.7812 70.9011 76.7812H49.8074ZM74.2761 77.9062C74.2761 77.2849 74.7798 76.7812 75.4011 76.7812H78.7761C79.3974 76.7812 79.9011 77.2849 79.9011 77.9062C79.9011 78.5276 79.3974 79.0312 78.7761 79.0312H75.4011C74.7798 79.0312 74.2761 78.5276 74.2761 77.9062ZM49.5262 81.2812C48.9048 81.2812 48.4012 81.7849 48.4012 82.4062C48.4012 83.0276 48.9048 83.5312 49.5262 83.5312H64.4324C65.0537 83.5312 65.5574 83.0276 65.5574 82.4062C65.5574 81.7849 65.0537 81.2812 64.4324 81.2812H49.5262ZM67.8074 82.4062C67.8074 81.7849 68.3111 81.2812 68.9324 81.2812H78.7761C79.3974 81.2812 79.9011 81.7849 79.9011 82.4062C79.9011 83.0276 79.3974 83.5312 78.7761 83.5312H68.9324C68.3111 83.5312 67.8074 83.0276 67.8074 82.4062ZM49.5262 85.7812C48.9048 85.7812 48.4012 86.2849 48.4012 86.9062C48.4012 87.5276 48.9048 88.0312 49.5262 88.0312H78.7762C79.3975 88.0312 79.9012 87.5276 79.9012 86.9062C79.9012 86.2849 79.3975 85.7812 78.7762 85.7812H49.5262ZM48.4012 91.4062C48.4012 90.7849 48.9048 90.2812 49.5262 90.2812H78.7762C79.3975 90.2812 79.9012 90.7849 79.9012 91.4062C79.9012 92.0276 79.3975 92.5312 78.7762 92.5312H49.5262C48.9048 92.5312 48.4012 92.0276 48.4012 91.4062ZM49.5262 94.7812C48.9048 94.7812 48.4012 95.2849 48.4012 95.9062C48.4012 96.5276 48.9048 97.0312 49.5262 97.0312H78.7762C79.3975 97.0312 79.9012 96.5276 79.9012 95.9062C79.9012 95.2849 79.3975 94.7812 78.7762 94.7812H49.5262ZM48.4012 100.406C48.4012 99.7849 48.9048 99.2812 49.5262 99.2812H59.3699C59.9912 99.2812 60.4949 99.7849 60.4949 100.406C60.4949 101.028 59.9912 101.531 59.3699 101.531H49.5262C48.9048 101.531 48.4012 101.028 48.4012 100.406ZM72.0261 99.2812C71.4048 99.2812 70.9011 99.7849 70.9011 100.406C70.9011 101.028 71.4048 101.531 72.0261 101.531H78.7761C79.3974 101.531 79.9011 101.028 79.9011 100.406C79.9011 99.7849 79.3974 99.2812 78.7761 99.2812H72.0261ZM48.4012 104.906C48.4012 104.285 48.9048 103.781 49.5262 103.781H59.3699C59.9912 103.781 60.4949 104.285 60.4949 104.906C60.4949 105.528 59.9912 106.031 59.3699 106.031H49.5262C48.9048 106.031 48.4012 105.528 48.4012 104.906ZM72.0261 103.781C71.4048 103.781 70.9011 104.285 70.9011 104.906C70.9011 105.528 71.4048 106.031 72.0261 106.031H78.7761C79.3974 106.031 79.9011 105.528 79.9011 104.906C79.9011 104.285 79.3974 103.781 78.7761 103.781H72.0261Z" fill="#E6FFEE"/>
</g>
<g filter="url(#filter8_b_1945_5181)">
<path fill-rule="evenodd" clip-rule="evenodd" d="M34.9011 99.2812H75.4011V106.031H75.4012C75.4012 108.422 77.2656 110.377 79.6199 110.523V110.531H39.4011C36.9158 110.531 34.9011 108.517 34.9011 106.031V99.2812Z" fill="url(#paint6_linear_1945_5181)"/>
</g>
<g filter="url(#filter9_b_1945_5181)">
<path d="M48.6824 65.5399V65.5312H61.9011M66.6824 47.5399V47.5312H106.901C109.386 47.5312 111.401 49.546 111.401 52.0312V58.7812H102.401M97.9011 92.5312C100.386 92.5312 102.401 90.5165 102.401 88.0312L102.401 58.7812M39.6824 110.523V110.531H79.9011C82.3864 110.531 84.4011 108.517 84.4011 106.031L84.4011 92.5312M43.9011 99.2812H75.4011V106.031C75.4011 108.422 77.2656 110.377 79.6199 110.523V110.531H39.4011C36.9158 110.531 34.9011 108.517 34.9011 106.031V99.2812H43.9011ZM43.9011 99.2812L43.9011 70.0312C43.9011 67.546 45.9158 65.5312 48.4011 65.5312H61.9011M84.4011 92.5312L84.4011 70.0312C84.4011 67.6404 86.2656 65.6851 88.6199 65.5399V65.5312H61.9011M84.4011 92.5312H97.6199V92.5226C95.2656 92.3774 93.4011 90.4221 93.4011 88.0312L93.4011 70.0312C93.4011 67.546 91.3864 65.5312 88.9011 65.5312H61.9011M61.9011 65.5312V52.0312C61.9011 49.546 63.9158 47.5312 66.4011 47.5312H106.62V47.5399C104.266 47.6851 102.401 49.6404 102.401 52.0312V58.7812" stroke="#046422" stroke-width="1.85209" stroke-linecap="round" stroke-linejoin="round"/>
</g>
<g filter="url(#filter10_bi_1945_5181)">
<path fill-rule="evenodd" clip-rule="evenodd" d="M53.2294 54.2732C53.9527 53.55 53.9527 52.3773 53.2294 51.654L49.4847 47.9093C48.7614 47.186 47.5887 47.186 46.8654 47.9093L39.9388 54.8359C39.2155 55.5592 38.0428 55.5592 37.3195 54.8359L30.3928 47.9092C29.6695 47.1859 28.4968 47.1859 27.7735 47.9092L24.0288 51.6539C23.3055 52.3772 23.3055 53.5498 24.0288 54.2731L30.9556 61.1999C31.6789 61.9232 31.6789 63.0958 30.9556 63.8191L24.0288 70.7459C23.3055 71.4692 23.3055 72.6418 24.0288 73.3651L27.7735 77.1098C28.4968 77.8331 29.6695 77.8331 30.3928 77.1098L37.3195 70.1831C38.0428 69.4598 39.2155 69.4598 39.9388 70.1831L46.8654 77.1097C47.5887 77.833 48.7614 77.833 49.4847 77.1097L53.2294 73.365C53.9527 72.6417 53.9527 71.469 53.2294 70.7458L46.3027 63.8191C45.5795 63.0958 45.5795 61.9232 46.3027 61.1999L53.2294 54.2732Z" fill="url(#paint7_linear_1945_5181)"/>
</g>
<g filter="url(#filter11_bi_1945_5181)">
<path fill-rule="evenodd" clip-rule="evenodd" d="M53.2294 54.2732C53.9527 53.55 53.9527 52.3773 53.2294 51.654L49.4847 47.9093C48.7614 47.186 47.5887 47.186 46.8654 47.9093L39.9388 54.8359C39.2155 55.5592 38.0428 55.5592 37.3195 54.8359L30.3928 47.9092C29.6695 47.1859 28.4968 47.1859 27.7735 47.9092L24.0288 51.6539C23.3055 52.3772 23.3055 53.5498 24.0288 54.2731L30.9556 61.1999C31.6789 61.9232 31.6789 63.0958 30.9556 63.8191L24.0288 70.7459C23.3055 71.4692 23.3055 72.6418 24.0288 73.3651L27.7735 77.1098C28.4968 77.8331 29.6695 77.8331 30.3928 77.1098L37.3195 70.1831C38.0428 69.4598 39.2155 69.4598 39.9388 70.1831L46.8654 77.1097C47.5887 77.833 48.7614 77.833 49.4847 77.1097L53.2294 73.365C53.9527 72.6417 53.9527 71.469 53.2294 70.7458L46.3027 63.8191C45.5795 63.0958 45.5795 61.9232 46.3027 61.1999L53.2294 54.2732Z" fill="url(#paint8_linear_1945_5181)"/>
<path d="M46.3027 61.1999L46.9576 61.8547L46.3027 61.1999ZM53.2294 73.365L52.5746 72.7102L53.2294 73.365ZM53.2294 70.7458L52.5746 71.4006L53.2294 70.7458ZM46.8654 77.1097L47.5202 76.4549L46.8654 77.1097ZM49.4847 77.1097L50.1395 77.7645L49.4847 77.1097ZM37.3195 70.1831L37.9743 70.8379L37.3195 70.1831ZM39.9388 70.1831L40.5936 69.5283L39.9388 70.1831ZM27.7735 77.1098L27.1187 77.7646L27.7735 77.1098ZM24.0288 70.7459L23.374 70.0911L24.0288 70.7459ZM24.0288 73.3651L24.6836 72.7103L24.0288 73.3651ZM30.9556 61.1999L30.3008 61.8547L30.9556 61.1999ZM30.9556 63.8191L31.6104 64.4739L30.9556 63.8191ZM30.3928 47.9092L31.0476 47.2543L30.3928 47.9092ZM27.7735 47.9092L27.1187 47.2544L27.7735 47.9092ZM53.2294 54.2732L52.5746 53.6184L53.2294 54.2732ZM48.8299 48.5641L52.5746 52.3088L53.8842 50.9992L50.1395 47.2545L48.8299 48.5641ZM40.5936 55.4907L47.5202 48.5641L46.2106 47.2545L39.284 54.1811L40.5936 55.4907ZM29.738 48.564L36.6647 55.4907L37.9743 54.1811L31.0476 47.2543L29.738 48.564ZM24.6836 52.3087L28.4283 48.564L27.1187 47.2544L23.374 50.9991L24.6836 52.3087ZM31.6104 60.5451L24.6836 53.6183L23.374 54.9279L30.3008 61.8547L31.6104 60.5451ZM24.6836 71.4007L31.6104 64.4739L30.3008 63.1643L23.374 70.0911L24.6836 71.4007ZM28.4284 76.455L24.6836 72.7103L23.374 74.0199L27.1187 77.7646L28.4284 76.455ZM36.6647 69.5283L29.738 76.455L31.0476 77.7646L37.9743 70.8379L36.6647 69.5283ZM47.5202 76.4549L40.5936 69.5283L39.284 70.8379L46.2106 77.7645L47.5202 76.4549ZM52.5746 72.7102L48.8298 76.4549L50.1395 77.7645L53.8842 74.0198L52.5746 72.7102ZM45.6479 64.4739L52.5746 71.4006L53.8842 70.0909L46.9576 63.1643L45.6479 64.4739ZM52.5746 53.6184L45.6479 60.5451L46.9576 61.8547L53.8842 54.9281L52.5746 53.6184ZM46.9576 63.1643C46.5959 62.8027 46.5959 62.2163 46.9576 61.8547L45.6479 60.5451C44.563 61.63 44.563 63.389 45.6479 64.4739L46.9576 63.1643ZM53.8842 74.0198C54.9691 72.9349 54.9691 71.1759 53.8842 70.0909L52.5746 71.4006C52.9362 71.7622 52.9362 72.3485 52.5746 72.7102L53.8842 74.0198ZM46.2106 77.7645C47.2955 78.8495 49.0545 78.8495 50.1395 77.7645L48.8298 76.4549C48.4682 76.8165 47.8819 76.8165 47.5202 76.4549L46.2106 77.7645ZM37.9743 70.8379C38.336 70.4763 38.9223 70.4763 39.284 70.8379L40.5936 69.5283C39.5087 68.4434 37.7496 68.4434 36.6647 69.5283L37.9743 70.8379ZM27.1187 77.7646C28.2037 78.8496 29.9627 78.8496 31.0476 77.7646L29.738 76.455C29.3763 76.8167 28.79 76.8167 28.4284 76.455L27.1187 77.7646ZM23.374 70.0911C22.2891 71.176 22.2891 72.935 23.374 74.0199L24.6836 72.7103C24.322 72.3487 24.322 71.7623 24.6836 71.4007L23.374 70.0911ZM30.3008 61.8547C30.6624 62.2163 30.6624 62.8027 30.3008 63.1643L31.6104 64.4739C32.6953 63.389 32.6953 61.63 31.6104 60.5451L30.3008 61.8547ZM23.374 50.9991C22.2891 52.084 22.2891 53.843 23.374 54.9279L24.6836 53.6183C24.322 53.2567 24.322 52.6703 24.6836 52.3087L23.374 50.9991ZM31.0476 47.2543C29.9627 46.1694 28.2036 46.1694 27.1187 47.2544L28.4283 48.564C28.79 48.2023 29.3763 48.2023 29.738 48.564L31.0476 47.2543ZM39.284 54.1811C38.9223 54.5428 38.336 54.5428 37.9743 54.1811L36.6647 55.4907C37.7496 56.5757 39.5087 56.5757 40.5936 55.4907L39.284 54.1811ZM52.5746 52.3088C52.9362 52.6704 52.9362 53.2568 52.5746 53.6184L53.8842 54.9281C54.9691 53.8431 54.9691 52.0841 53.8842 50.9992L52.5746 52.3088ZM50.1395 47.2545C49.0546 46.1695 47.2955 46.1695 46.2106 47.2545L47.5202 48.5641C47.8819 48.2024 48.4682 48.2024 48.8299 48.5641L50.1395 47.2545Z" fill="#DA2F38"/>
</g>
<g style="mix-blend-mode:color">
<rect x="0.5" width="144" height="144" fill="white"/>
</g>
</g>
<defs>
<filter id="filter0_b_1945_5181" x="55.4324" y="45.2812" width="53.4375" height="49.5" filterUnits="userSpaceOnUse" color-interpolation-filters="sRGB">
<feFlood flood-opacity="0" result="BackgroundImageFix"/>
<feGaussianBlur in="BackgroundImageFix" stdDeviation="1.125"/>
<feComposite in2="SourceAlpha" operator="in" result="effect1_backgroundBlur_1945_5181"/>
<feBlend mode="normal" in="SourceGraphic" in2="effect1_backgroundBlur_1945_5181" result="shape"/>
</filter>
<filter id="filter1_i_1945_5181" x="95.6791" y="101.929" width="17.5574" height="17.5574" filterUnits="userSpaceOnUse" color-interpolation-filters="sRGB">
<feFlood flood-opacity="0" result="BackgroundImageFix"/>
<feBlend mode="normal" in="SourceGraphic" in2="BackgroundImageFix" result="shape"/>
<feColorMatrix in="SourceAlpha" type="matrix" values="0 0 0 0 0 0 0 0 0 0 0 0 0 0 0 0 0 0 127 0" result="hardAlpha"/>
<feOffset dx="0.5625" dy="0.5625"/>
<feGaussianBlur stdDeviation="1.125"/>
<feComposite in2="hardAlpha" operator="arithmetic" k2="-1" k3="1"/>
<feColorMatrix type="matrix" values="0 0 0 0 1 0 0 0 0 1 0 0 0 0 1 0 0 0 0.5 0"/>
<feBlend mode="normal" in2="shape" result="effect1_innerShadow_1945_5181"/>
</filter>
<filter id="filter2_i_1945_5181" x="84.9916" y="24.8669" width="17.5574" height="17.5574" filterUnits="userSpaceOnUse" color-interpolation-filters="sRGB">
<feFlood flood-opacity="0" result="BackgroundImageFix"/>
<feBlend mode="normal" in="SourceGraphic" in2="BackgroundImageFix" result="shape"/>
<feColorMatrix in="SourceAlpha" type="matrix" values="0 0 0 0 0 0 0 0 0 0 0 0 0 0 0 0 0 0 127 0" result="hardAlpha"/>
<feOffset dx="0.5625" dy="0.5625"/>
<feGaussianBlur stdDeviation="1.125"/>
<feComposite in2="hardAlpha" operator="arithmetic" k2="-1" k3="1"/>
<feColorMatrix type="matrix" values="0 0 0 0 1 0 0 0 0 1 0 0 0 0 1 0 0 0 0.5 0"/>
<feBlend mode="normal" in2="shape" result="effect1_innerShadow_1945_5181"/>
</filter>
<filter id="filter3_b_1945_5181" x="64.4324" y="45.2812" width="49.2188" height="15.75" filterUnits="userSpaceOnUse" color-interpolation-filters="sRGB">
<feFlood flood-opacity="0" result="BackgroundImageFix"/>
<feGaussianBlur in="BackgroundImageFix" stdDeviation="1.125"/>
<feComposite in2="SourceAlpha" operator="in" result="effect1_backgroundBlur_1945_5181"/>
<feBlend mode="normal" in="SourceGraphic" in2="effect1_backgroundBlur_1945_5181" result="shape"/>
</filter>
<filter id="filter4_b_1945_5181" x="61.9011" y="49.7812" width="40.5" height="42.75" filterUnits="userSpaceOnUse" color-interpolation-filters="sRGB">
<feFlood flood-opacity="0" result="BackgroundImageFix"/>
<feGaussianBlur in="BackgroundImageFix" stdDeviation="2.25"/>
<feComposite in2="SourceAlpha" operator="in" result="effect1_backgroundBlur_1945_5181"/>
<feBlend mode="normal" in="SourceGraphic" in2="effect1_backgroundBlur_1945_5181" result="shape"/>
</filter>
<filter id="filter5_b_1945_5181" x="46.4324" y="63.2812" width="53.4375" height="31.5" filterUnits="userSpaceOnUse" color-interpolation-filters="sRGB">
<feFlood flood-opacity="0" result="BackgroundImageFix"/>
<feGaussianBlur in="BackgroundImageFix" stdDeviation="1.125"/>
<feComposite in2="SourceAlpha" operator="in" result="effect1_backgroundBlur_1945_5181"/>
<feBlend mode="normal" in="SourceGraphic" in2="effect1_backgroundBlur_1945_5181" result="shape"/>
</filter>
<filter id="filter6_b_1945_5181" x="37.4324" y="63.2812" width="53.4375" height="49.5" filterUnits="userSpaceOnUse" color-interpolation-filters="sRGB">
<feFlood flood-opacity="0" result="BackgroundImageFix"/>
<feGaussianBlur in="BackgroundImageFix" stdDeviation="1.125"/>
<feComposite in2="SourceAlpha" operator="in" result="effect1_backgroundBlur_1945_5181"/>
<feBlend mode="normal" in="SourceGraphic" in2="effect1_backgroundBlur_1945_5181" result="shape"/>
</filter>
<filter id="filter7_b_1945_5181" x="43.9011" y="67.7812" width="40.5" height="42.75" filterUnits="userSpaceOnUse" color-interpolation-filters="sRGB">
<feFlood flood-opacity="0" result="BackgroundImageFix"/>
<feGaussianBlur in="BackgroundImageFix" stdDeviation="2.25"/>
<feComposite in2="SourceAlpha" operator="in" result="effect1_backgroundBlur_1945_5181"/>
<feBlend mode="normal" in="SourceGraphic" in2="effect1_backgroundBlur_1945_5181" result="shape"/>
</filter>
<filter id="filter8_b_1945_5181" x="32.6511" y="97.0312" width="49.2188" height="15.75" filterUnits="userSpaceOnUse" color-interpolation-filters="sRGB">
<feFlood flood-opacity="0" result="BackgroundImageFix"/>
<feGaussianBlur in="BackgroundImageFix" stdDeviation="1.125"/>
<feComposite in2="SourceAlpha" operator="in" result="effect1_backgroundBlur_1945_5181"/>
<feBlend mode="normal" in="SourceGraphic" in2="effect1_backgroundBlur_1945_5181" result="shape"/>
</filter>
<filter id="filter9_b_1945_5181" x="31.7251" y="44.3552" width="82.8521" height="69.3521" filterUnits="userSpaceOnUse" color-interpolation-filters="sRGB">
<feFlood flood-opacity="0" result="BackgroundImageFix"/>
<feGaussianBlur in="BackgroundImageFix" stdDeviation="1.125"/>
<feComposite in2="SourceAlpha" operator="in" result="effect1_backgroundBlur_1945_5181"/>
<feBlend mode="normal" in="SourceGraphic" in2="effect1_backgroundBlur_1945_5181" result="shape"/>
</filter>
<filter id="filter10_bi_1945_5181" x="19.7821" y="43.6625" width="37.6939" height="37.694" filterUnits="userSpaceOnUse" color-interpolation-filters="sRGB">
<feFlood flood-opacity="0" result="BackgroundImageFix"/>
<feGaussianBlur in="BackgroundImageFix" stdDeviation="1.85209"/>
<feComposite in2="SourceAlpha" operator="in" result="effect1_backgroundBlur_1945_5181"/>
<feBlend mode="normal" in="SourceGraphic" in2="effect1_backgroundBlur_1945_5181" result="shape"/>
<feColorMatrix in="SourceAlpha" type="matrix" values="0 0 0 0 0 0 0 0 0 0 0 0 0 0 0 0 0 0 127 0" result="hardAlpha"/>
<feOffset dx="0.5625" dy="0.5625"/>
<feGaussianBlur stdDeviation="1.125"/>
<feComposite in2="hardAlpha" operator="arithmetic" k2="-1" k3="1"/>
<feColorMatrix type="matrix" values="0 0 0 0 1 0 0 0 0 1 0 0 0 0 1 0 0 0 0.5 0"/>
<feBlend mode="normal" in2="shape" result="effect2_innerShadow_1945_5181"/>
</filter>
<filter id="filter11_bi_1945_5181" x="18.8561" y="42.7365" width="39.5459" height="39.5461" filterUnits="userSpaceOnUse" color-interpolation-filters="sRGB">
<feFlood flood-opacity="0" result="BackgroundImageFix"/>
<feGaussianBlur in="BackgroundImageFix" stdDeviation="1.85209"/>
<feComposite in2="SourceAlpha" operator="in" result="effect1_backgroundBlur_1945_5181"/>
<feBlend mode="normal" in="SourceGraphic" in2="effect1_backgroundBlur_1945_5181" result="shape"/>
<feColorMatrix in="SourceAlpha" type="matrix" values="0 0 0 0 0 0 0 0 0 0 0 0 0 0 0 0 0 0 127 0" result="hardAlpha"/>
<feOffset dx="0.5625" dy="0.5625"/>
<feGaussianBlur stdDeviation="1.125"/>
<feComposite in2="hardAlpha" operator="arithmetic" k2="-1" k3="1"/>
<feColorMatrix type="matrix" values="0 0 0 0 1 0 0 0 0 1 0 0 0 0 1 0 0 0 0.5 0"/>
<feBlend mode="normal" in2="shape" result="effect2_innerShadow_1945_5181"/>
</filter>
<linearGradient id="paint0_linear_1945_5181" x1="82.1511" y1="47.5312" x2="82.1511" y2="92.5312" gradientUnits="userSpaceOnUse">
<stop stop-color="#17AD49"/>
<stop offset="1" stop-color="#17AD49" stop-opacity="0.32"/>
</linearGradient>
<linearGradient id="paint1_linear_1945_5181" x1="96.6051" y1="102.855" x2="111.814" y2="102.923" gradientUnits="userSpaceOnUse">
<stop stop-color="#FFA54D"/>
<stop offset="1" stop-color="#FC353F"/>
</linearGradient>
<linearGradient id="paint2_linear_1945_5181" x1="85.9176" y1="25.793" x2="101.127" y2="25.86" gradientUnits="userSpaceOnUse">
<stop stop-color="#FFA54D"/>
<stop offset="1" stop-color="#FC353F"/>
</linearGradient>
<linearGradient id="paint3_linear_1945_5181" x1="89.0417" y1="58.7812" x2="89.0417" y2="47.5312" gradientUnits="userSpaceOnUse">
<stop stop-color="#009030" stop-opacity="0.5"/>
<stop offset="1" stop-color="#009030"/>
</linearGradient>
<linearGradient id="paint4_linear_1945_5181" x1="73.1511" y1="92.5312" x2="73.1511" y2="65.5312" gradientUnits="userSpaceOnUse">
<stop stop-color="#009030"/>
<stop offset="0.472221" stop-color="#009030" stop-opacity="0.5"/>
<stop offset="1" stop-color="#009030"/>
</linearGradient>
<linearGradient id="paint5_linear_1945_5181" x1="64.1511" y1="65.5312" x2="64.1511" y2="110.531" gradientUnits="userSpaceOnUse">
<stop stop-color="#17AD49"/>
<stop offset="1" stop-color="#17AD49" stop-opacity="0.32"/>
</linearGradient>
<linearGradient id="paint6_linear_1945_5181" x1="57.2605" y1="99.2812" x2="57.2605" y2="110.531" gradientUnits="userSpaceOnUse">
<stop stop-color="#009030" stop-opacity="0.5"/>
<stop offset="1" stop-color="#009030"/>
</linearGradient>
<linearGradient id="paint7_linear_1945_5181" x1="53.7719" y1="47.3667" x2="53.6377" y2="77.7853" gradientUnits="userSpaceOnUse">
<stop stop-color="#FFA54D"/>
<stop offset="1" stop-color="#FC353F"/>
</linearGradient>
<linearGradient id="paint8_linear_1945_5181" x1="53.7719" y1="47.3667" x2="53.6377" y2="77.7853" gradientUnits="userSpaceOnUse">
<stop stop-color="#FFA54D"/>
<stop offset="1" stop-color="#FC353F"/>
</linearGradient>
<clipPath id="clip0_1945_5181">
<rect width="144" height="144" fill="white" transform="translate(0.5)"/>
</clipPath>
</defs>
</svg>
